<?xml version="1.0" encoding="UTF-8" standalone="no"?>
<svg
   data-v-423bf9ae=""
   viewBox="0 0 84.733467 90"
   class="iconLeft"
   version="1.1"
   id="svg12"
   width="84.733467"
   height="90"
   xmlns="http://www.w3.org/2000/svg"
   xmlns:svg="http://www.w3.org/2000/svg">
  <defs
     id="defs16" />
  <!---->
  <!---->
  <!---->
  <!---->
  <g
     data-v-423bf9ae=""
     id="692f0ff7-d621-44b8-9080-7c9ce596b2d2"
     transform="matrix(1.1840236,0,0,1.1840236,-16.789455,-14.134874)"
     stroke="none"
     fill="#ffffff">
    <path
       d="m 70.062,65.593 c 1.053,0 2.043,-0.41 2.789,-1.155 0.746,-0.745 1.156,-1.735 1.156,-2.79 0,-1.055 -0.411,-2.043 -1.156,-2.788 -1.49,-1.49 -4.088,-1.49 -5.579,0 -0.745,0.745 -1.155,1.735 -1.155,2.789 0,1.054 0.41,2.044 1.155,2.789 0.745,0.745 1.736,1.155 2.79,1.155 z m -2.083,-6.026 c 0.556,-0.556 1.295,-0.862 2.083,-0.862 0.788,0 1.526,0.306 2.082,0.862 0.556,0.556 0.863,1.295 0.863,2.082 0,0.787 -0.307,1.526 -0.863,2.082 -1.112,1.112 -3.053,1.112 -4.165,0 -0.556,-0.556 -0.862,-1.295 -0.862,-2.082 0,-0.787 0.306,-1.526 0.862,-2.082 z"
       id="path5" />
    <path
       d="m 83.126,69.304 h 2.618 V 53.994 H 83.126 V 36.863 H 64.402 a 16.484,16.484 0 0 0 2.227,-8.296 c 0,-9.17 -7.46,-16.629 -16.629,-16.629 -3.097,0 -5.99,0.867 -8.475,2.348 a 16.566,16.566 0 0 0 -8.502,-2.348 c -9.169,0 -16.628,7.46 -16.628,16.63 0,2.952 0.772,5.781 2.226,8.295 H 14.18 V 87.95 H 83.127 V 69.304 Z m 0.618,-2 H 63.74 l -2.993,-5.678 2.991,-5.632 H 83.744 Z M 64.63,28.567 c 0,2.996 -0.9,5.85 -2.591,8.296 H 58.46 c 2.154,-2.201 3.41,-5.167 3.41,-8.296 0,-6.546 -5.325,-11.871 -11.871,-11.871 -6.546,0 -11.87,5.324 -11.87,11.871 0,3.129 1.256,6.095 3.41,8.296 h -3.577 a 14.502,14.502 0 0 1 -2.59,-8.296 c 0,-8.066 6.562,-14.629 14.628,-14.629 8.066,0 14.629,6.563 14.629,14.63 z m -10.488,2.973 -0.637,1.307 c -0.306,0.63 -0.473,0.708 -1.1,0.715 v -0.003 h -3.918 v 0.003 c -0.628,-0.007 -0.795,-0.085 -1.1,-0.715 l -1.375,-2.818 c -0.195,-0.391 -0.34,-0.668 -0.34,-1.124 0,-0.505 0.129,-0.798 0.34,-1.238 l 1.407,-2.834 c 0.3,-0.603 0.419,-0.68 1.068,-0.684 v 0.004 h 3.917 v -0.004 c 0.65,0.004 0.769,0.08 1.068,0.684 l 0.586,1.18 h 1.79 l -0.952,-1.93 C 54.346,22.959 53.65,22.52 52.404,22.52 H 51.28 v -2.23 h -1.669 v 2.23 h -1.124 c -1.246,0 -1.942,0.44 -2.492,1.564 l -1.488,3.013 c -0.324,0.651 -0.453,1.091 -0.453,1.808 0,0.635 0.162,1.157 0.437,1.71 l 1.488,3.03 c 0.518,1.06 1.213,1.548 2.427,1.548 h 1.205 v 1.67 h -6.613 a 10.882,10.882 0 0 1 -3.87,-8.295 c 0,-5.994 4.878,-10.871 10.872,-10.871 5.994,0 10.871,4.877 10.871,10.871 0,3.21 -1.437,6.24 -3.869,8.296 H 51.28 v -1.671 h 1.205 c 1.214,0 1.91,-0.489 2.427,-1.548 l 1.034,-2.105 z m -28.12,5.324 a 10.883,10.883 0 0 1 -3.87,-8.296 c 0,-5.994 4.876,-10.871 10.871,-10.871 1.336,0 2.623,0.241 3.846,0.706 a 16.606,16.606 0 0 0 -2.342,4.117 h -1.061 v -2.23 h -1.67 v 2.23 h -1.124 c -1.246,0 -1.942,0.44 -2.492,1.564 l -1.488,3.013 c -0.323,0.651 -0.453,1.091 -0.453,1.808 0,0.635 0.162,1.157 0.437,1.71 l 1.488,3.03 c 0.518,1.06 1.214,1.548 2.427,1.548 h 1.205 v 1.67 H 26.02 Z m 4.674,-12.71 h 3.289 a 16.549,16.549 0 0 0 -0.614,4.414 c 0,1.718 0.265,3.393 0.767,4.991 h -3.466 v 0.003 c -0.628,-0.007 -0.795,-0.085 -1.1,-0.715 l -1.375,-2.818 c -0.194,-0.391 -0.34,-0.668 -0.34,-1.124 0,-0.505 0.13,-0.798 0.34,-1.238 l 1.407,-2.834 c 0.3,-0.603 0.419,-0.68 1.068,-0.684 v 0.004 h 0.024 z m 2.77,11.039 h 1.204 c 0.028,0 0.048,-0.007 0.073,-0.009 0.25,0.575 0.54,1.133 0.855,1.68 H 33.466 Z M 18.395,28.568 c 0,-8.066 6.562,-14.629 14.628,-14.629 2.335,0 4.608,0.56 6.66,1.611 a 16.752,16.752 0 0 0 -2.151,2.052 11.739,11.739 0 0 0 -4.509,-0.905 c -6.545,0 -11.872,5.325 -11.872,11.871 0,3.128 1.257,6.095 3.411,8.296 h -3.576 a 14.496,14.496 0 0 1 -2.591,-8.296 z m -2.216,57.384 v -3.096 h 1.854 a 0.5,0.5 0 1 0 0,-1 H 16.18 v -3.679 h 12.955 l 1.455,-3.943 h 6.622 a 5.381,5.381 0 0 0 1.51,3.02 5.397,5.397 0 0 0 3.841,1.592 5.397,5.397 0 0 0 3.841,-1.59 5.395,5.395 0 0 0 1.592,-3.841 5.394,5.394 0 0 0 -1.592,-3.841 5.395,5.395 0 0 0 -3.84,-1.592 5.397,5.397 0 0 0 -5.289,4.252 h -8.08 L 27.74,76.177 H 16.18 V 65.994 h 12.955 l 1.455,-3.943 h 6.632 a 5.389,5.389 0 0 0 1.5,2.93 5.397,5.397 0 0 0 3.842,1.592 5.397,5.397 0 0 0 3.84,-1.591 5.396,5.396 0 0 0 1.592,-3.841 c 0,-1.451 -0.565,-2.815 -1.592,-3.841 a 5.395,5.395 0 0 0 -3.84,-1.591 c -1.45,0 -2.815,0.565 -3.841,1.59 a 5.394,5.394 0 0 0 -1.474,2.752 H 29.195 L 27.74,63.994 H 16.18 V 53.81 h 12.955 l 1.455,-3.943 h 6.64 a 5.398,5.398 0 0 0 1.493,2.841 5.4,5.4 0 0 0 3.84,1.59 5.395,5.395 0 0 0 3.841,-1.59 c 1.027,-1.026 1.592,-2.39 1.592,-3.84 0,-1.45 -0.565,-2.816 -1.592,-3.842 a 5.395,5.395 0 0 0 -3.84,-1.59 c -1.45,0 -2.815,0.564 -3.841,1.59 A 5.396,5.396 0 0 0 37.23,47.867 H 29.195 L 27.74,51.81 H 16.18 v -8.853 h 1.854 a 0.5,0.5 0 1 0 0,-1 H 16.18 v -3.095 h 64.947 v 15.131 h -3.058 v -1 a 0.5,0.5 0 1 0 -1,0 v 1 H 62.535 l -4.05,7.63 4.048,7.68 h 14.535 v 0.999 a 0.5,0.5 0 1 0 1,0 v -1 h 3.058 V 85.95 H 16.179 Z M 40.136,70.988 a 3.412,3.412 0 0 1 2.426,-1.006 c 0.917,0 1.779,0.357 2.427,1.006 a 3.407,3.407 0 0 1 1.006,2.427 c 0,0.916 -0.357,1.777 -1.006,2.426 -1.296,1.296 -3.555,1.296 -4.853,0 a 3.436,3.436 0 0 1 0,-4.853 z m 0,-12.273 a 3.41,3.41 0 0 1 2.426,-1.005 3.41,3.41 0 0 1 2.427,1.005 3.41,3.41 0 0 1 1.006,2.427 3.41,3.41 0 0 1 -1.006,2.426 c -1.296,1.297 -3.555,1.297 -4.853,0 a 3.436,3.436 0 0 1 0,-4.853 z m 0,-12.272 a 3.41,3.41 0 0 1 2.426,-1.005 3.41,3.41 0 0 1 2.427,1.004 c 0.649,0.649 1.006,1.51 1.006,2.427 0,0.917 -0.357,1.778 -1.006,2.427 -1.296,1.295 -3.555,1.297 -4.853,0 a 3.436,3.436 0 0 1 0,-4.853 z"
       id="path7" />
    <path
       d="m 77.568,73.154 a 0.5,0.5 0 0 0 -0.5,0.5 v 3.35 a 0.5,0.5 0 1 0 1,0 v -3.35 a 0.5,0.5 0 0 0 -0.5,-0.5 z m 0,6.701 a 0.5,0.5 0 0 0 -0.5,0.5 v 1.5 h -1.5 a 0.5,0.5 0 1 0 0,1 h 2 a 0.5,0.5 0 0 0 0.5,-0.5 v -2 a 0.5,0.5 0 0 0 -0.5,-0.5 z m -51.864,2 H 21.87 a 0.5,0.5 0 1 0 0,1 h 3.835 a 0.5,0.5 0 1 0 0,-1 z m 7.672,0 H 29.54 a 0.5,0.5 0 1 0 0,1 h 3.836 a 0.5,0.5 0 1 0 0,-1 z m 7.671,0 h -3.835 a 0.5,0.5 0 1 0 0,1 h 3.835 a 0.5,0.5 0 1 0 0,-1 z m 30.685,0 h -3.836 a 0.5,0.5 0 1 0 0,1 h 3.836 a 0.5,0.5 0 1 0 0,-1 z m -23.013,0 h -3.836 a 0.5,0.5 0 1 0 0,1 h 3.836 a 0.5,0.5 0 1 0 0,-1 z m 7.671,0 h -3.836 a 0.5,0.5 0 1 0 0,1 h 3.836 a 0.5,0.5 0 1 0 0,-1 z m 7.672,0 h -3.836 a 0.5,0.5 0 1 0 0,1 h 3.836 a 0.5,0.5 0 1 0 0,-1 z M 49.218,42.458 a 0.5,0.5 0 0 0 -0.5,-0.5 h -3.836 a 0.5,0.5 0 1 0 0,1 h 3.836 a 0.5,0.5 0 0 0 0.5,-0.5 z m -15.843,-0.5 h -3.836 a 0.5,0.5 0 1 0 0,1 h 3.836 a 0.5,0.5 0 1 0 0,-1 z m -7.671,0 h -3.836 a 0.5,0.5 0 1 0 0,1 h 3.836 a 0.5,0.5 0 1 0 0,-1 z m 34.521,1 h 3.836 a 0.5,0.5 0 1 0 0,-1 h -3.836 a 0.5,0.5 0 1 0 0,1 z m -7.671,0 h 3.835 a 0.5,0.5 0 1 0 0,-1 h -3.835 a 0.5,0.5 0 1 0 0,1 z m 15.342,0 h 3.835 a 0.5,0.5 0 1 0 0,-1 h -3.835 a 0.5,0.5 0 1 0 0,1 z m -26.849,-1 H 37.21 a 0.5,0.5 0 1 0 0,1 h 3.836 a 0.5,0.5 0 1 0 0,-1 z m 34.521,1 h 1.5 v 1.5 a 0.5,0.5 0 1 0 1,0 v -2 a 0.5,0.5 0 0 0 -0.5,-0.5 h -2 a 0.5,0.5 0 1 0 0,1 z m 2,3.846 a 0.5,0.5 0 0 0 -0.5,0.5 v 2.845 a 0.5,0.5 0 1 0 1,0 v -2.845 a 0.5,0.5 0 0 0 -0.5,-0.5 z"
       id="path9" />
  </g>
  <!---->
</svg>
