<svg data-v-423bf9ae="" xmlns="http://www.w3.org/2000/svg" viewBox="0 0 370 90" class="iconLeft"><!----><!----><!----><g data-v-423bf9ae="" id="27347fbe-6d93-41fa-8187-590e9ddd1ac1" fill="white" transform="matrix(4.369992558840071,0,0,4.369992558840071,102.15516375462195,1.7152242183396424)"><path d="M0.59 7.91C0.59 11.31 2.95 12.87 5.54 12.87C7.32 12.87 9.10 11.90 9.14 11.59C9.31 10.29 9.37 9.70 9.37 9.66C9.37 9.56 9.32 9.52 9.16 9.51C9.10 9.51 9.04 9.49 9.00 9.49C8.89 9.49 8.83 9.53 8.81 9.70L8.62 11.33C8.61 11.45 7.50 12.24 5.94 12.24C3.81 12.24 2.10 10.29 2.10 7.94C2.10 5.42 3.53 3.54 5.53 3.54C7.38 3.54 8.72 5.01 8.72 5.17C8.72 5.29 8.67 6.40 8.67 6.45C8.67 6.59 8.71 6.64 8.97 6.64C9.17 6.64 9.24 6.62 9.24 6.44C9.24 5.73 9.30 3.92 9.30 3.67C9.30 3.47 9.18 3.44 8.97 3.44C8.75 3.44 8.72 3.50 8.72 3.67L8.72 4.05C8.72 4.16 8.68 4.16 8.55 4.06C8.27 3.86 7.29 3.04 5.63 3.04C2.79 3.04 0.59 4.96 0.59 7.91ZM10.53 7.71C10.53 7.76 10.56 7.76 10.63 7.76C10.67 7.76 11.38 7.73 11.47 7.73C11.55 7.73 11.58 9.20 11.58 10.33C11.58 11.24 11.56 12.21 11.47 12.21L10.85 12.21C10.68 12.21 10.68 12.29 10.68 12.43C10.68 12.59 10.70 12.67 10.86 12.67C11.28 12.67 11.76 12.64 12.11 12.64C12.52 12.64 13.37 12.67 13.64 12.67C13.82 12.67 13.82 12.56 13.82 12.43C13.82 12.29 13.80 12.21 13.64 12.21L12.71 12.21C12.61 12.21 12.59 11.47 12.59 10.68C12.59 9.46 12.70 7.87 13.34 7.87C13.58 7.87 13.86 8.32 14.17 8.32C14.43 8.32 14.74 7.85 14.74 7.69C14.74 7.49 14.35 7.04 13.90 7.04C13.45 7.04 12.88 7.49 12.56 8.26C12.49 8.40 12.50 8.46 12.50 8.23C12.50 7.98 12.52 7.64 12.52 7.42C12.52 7.29 12.52 7.29 12.35 7.29C12.25 7.29 11.35 7.32 10.84 7.34C10.64 7.34 10.61 7.34 10.58 7.45C10.57 7.52 10.53 7.66 10.53 7.71ZM15.15 7.45C15.15 7.59 15.15 7.67 15.33 7.67L15.61 7.67C15.71 7.67 15.71 7.69 15.78 7.85C16.35 9.25 17.96 12.99 17.96 13.20C17.96 13.34 17.58 14.29 17.35 14.88C17.19 15.26 16.49 15.43 16.11 15.57C15.99 15.61 15.81 15.69 15.71 15.83C15.57 16.03 15.43 16.30 15.43 16.45C15.43 16.59 15.50 16.77 15.72 16.77C15.83 16.77 16.25 16.58 16.60 16.41C16.95 16.24 16.98 16.17 17.19 15.90C17.79 15.16 17.85 14.92 18.10 14.21C18.37 13.44 18.62 12.67 18.66 12.57C18.77 12.29 20.30 8.40 20.52 7.78C20.57 7.67 20.61 7.67 20.69 7.67L20.90 7.67C21.07 7.67 21.07 7.59 21.07 7.45C21.07 7.28 21.04 7.21 20.89 7.21C20.76 7.21 20.38 7.24 20.08 7.24C19.80 7.24 19.25 7.21 19.14 7.21C18.96 7.21 18.94 7.31 18.94 7.45C18.94 7.59 18.94 7.67 19.12 7.67L19.61 7.67C19.81 7.67 19.87 7.69 19.87 7.76C19.87 7.78 19.87 7.81 19.85 7.87C19.71 8.40 19.07 10.26 18.73 11.24C18.63 11.51 18.56 11.69 18.54 11.69C18.49 11.69 18.42 11.49 18.31 11.24C17.88 10.18 17.07 7.99 17.07 7.77C17.07 7.70 17.19 7.67 17.39 7.67L17.65 7.67C17.82 7.67 17.86 7.59 17.86 7.45C17.86 7.29 17.84 7.21 17.64 7.21C17.43 7.21 16.94 7.24 16.41 7.24C16.00 7.24 15.55 7.21 15.33 7.21C15.16 7.21 15.15 7.32 15.15 7.45ZM21.67 7.73C21.67 7.78 21.70 7.78 21.80 7.78C21.85 7.78 22.46 7.76 22.61 7.76C22.75 7.76 22.78 7.73 22.79 7.91C22.83 8.48 22.89 8.92 22.89 11.93L22.89 13.92C22.89 14.83 22.89 16.11 22.85 16.11L22.09 16.11C21.92 16.11 21.91 16.20 21.91 16.34C21.91 16.49 21.92 16.58 22.09 16.58C22.51 16.58 23.14 16.55 23.49 16.55C23.90 16.55 24.74 16.58 25.00 16.58C25.19 16.58 25.20 16.46 25.20 16.34C25.20 16.20 25.20 16.11 25.00 16.11L24.02 16.11C23.98 16.11 23.97 15.68 23.95 15.22L23.91 12.71C23.91 12.57 23.91 12.53 23.94 12.53C23.98 12.53 24.53 12.77 25.13 12.77C26.99 12.77 28.10 11.31 28.10 9.88C28.10 8.39 27.30 7.20 25.66 7.20C25.06 7.20 24.46 7.49 24.12 7.73C24.02 7.80 23.90 7.92 23.90 7.76L23.90 7.48C23.90 7.27 23.83 7.24 23.70 7.24C23.65 7.24 22.74 7.29 21.80 7.32C21.74 7.32 21.67 7.71 21.67 7.73ZM23.91 11.91L23.91 8.32C23.91 8.30 23.93 8.16 24.35 7.95C24.56 7.85 24.84 7.77 25.23 7.77C26.24 7.77 27.01 8.62 27.01 9.98C27.01 11.09 26.36 12.42 25.09 12.42C24.65 12.42 23.91 12.15 23.91 11.91ZM28.98 7.78C28.98 7.87 29.01 7.92 29.09 7.92L29.44 7.92C29.57 7.92 29.60 8.19 29.60 8.74C29.60 9.14 29.57 10.77 29.57 11.77C29.57 12.21 29.81 12.77 30.62 12.77C31.11 12.77 32.06 12.36 32.35 12.15C32.42 12.10 32.42 12.08 32.42 12.01C32.42 11.93 32.41 11.80 32.35 11.80C32.21 11.80 31.75 12.03 31.21 12.03C30.60 12.03 30.58 11.63 30.58 11.20L30.58 8.51C30.58 8.15 30.58 7.91 30.63 7.91L31.96 7.91C32.09 7.91 32.13 7.85 32.19 7.66C32.20 7.59 32.23 7.49 32.23 7.43C32.23 7.36 32.20 7.35 32.13 7.35L30.69 7.35C30.58 7.35 30.58 7.35 30.58 7.25C30.58 7.03 30.66 5.95 30.66 5.91C30.66 5.81 30.62 5.74 30.51 5.74C30.44 5.74 30.38 5.78 30.32 5.87L29.05 7.64C29.01 7.69 28.98 7.73 28.98 7.78ZM32.97 10.04C32.97 11.58 34.13 12.85 35.66 12.85C37.42 12.85 38.46 11.58 38.46 9.84C38.46 8.29 37.44 7.01 35.88 7.01C34.13 7.01 32.97 8.37 32.97 10.04ZM34.05 10.23C34.05 8.69 34.44 7.46 35.71 7.46C36.85 7.46 37.37 8.74 37.37 9.74C37.37 10.92 37.13 12.40 35.66 12.40C34.61 12.40 34.05 11.27 34.05 10.23ZM39.28 12.46C39.28 12.63 39.30 12.70 39.48 12.70C39.63 12.70 40.87 12.64 41.26 12.64C42.11 12.64 42.99 12.70 43.85 12.70C46.47 12.70 48.86 11.07 48.86 7.91C48.86 4.89 46.52 3.07 43.48 3.07C42.92 3.07 41.66 3.23 40.63 3.23C40.15 3.23 39.69 3.22 39.63 3.22C39.45 3.22 39.44 3.32 39.44 3.49C39.44 3.68 39.51 3.70 39.63 3.70L40.60 3.67C40.63 3.67 40.63 4.20 40.63 4.72C40.63 5.91 40.54 12.21 40.46 12.21L39.56 12.21C39.38 12.21 39.28 12.22 39.28 12.46ZM41.86 11.40C41.86 9.46 41.86 7.52 41.87 5.60C41.87 5.03 41.92 3.61 41.96 3.60C42.25 3.53 42.84 3.51 43.19 3.51C45.75 3.51 47.36 5.75 47.36 7.73C47.36 8.95 47.32 12.25 42.64 12.25C42.38 12.25 41.97 12.25 41.87 12.21C41.86 12.19 41.86 11.79 41.86 11.40ZM49.70 10.01C49.70 11.68 50.67 12.85 52.43 12.85C53.89 12.85 54.88 11.56 54.88 11.48C54.88 11.45 54.64 11.24 54.60 11.24C54.52 11.24 53.93 12.15 52.75 12.15C51.74 12.15 50.75 11.33 50.75 9.88C50.75 9.72 50.76 9.49 50.79 9.42C51.00 9.42 53.76 9.49 53.91 9.49C54.05 9.49 54.71 9.46 54.71 9.28C54.71 8.09 54.00 7.01 52.58 7.01C50.88 7.01 49.70 8.33 49.70 10.01ZM50.82 9.03C50.88 8.34 51.52 7.41 52.42 7.41C52.85 7.41 53.66 7.70 53.66 8.99C53.66 9.04 53.49 9.03 53.14 9.04C52.44 9.07 51.02 9.10 50.95 9.10C50.83 9.10 50.82 9.09 50.82 9.03ZM55.20 12.43C55.20 12.60 55.20 12.67 55.34 12.67C55.55 12.67 55.86 12.64 56.21 12.64C56.62 12.64 56.91 12.67 57.12 12.67C57.32 12.67 57.32 12.56 57.32 12.43C57.32 12.29 57.32 12.21 57.12 12.21L56.70 12.21C56.49 12.21 56.50 12.14 56.62 11.97C56.94 11.52 57.64 10.74 57.93 10.39C57.99 10.32 58.02 10.29 58.04 10.29C58.07 10.29 58.10 10.33 58.16 10.40C58.37 10.68 58.77 11.26 59.05 11.70C59.15 11.87 59.30 12.03 59.30 12.12C59.30 12.18 59.25 12.21 59.11 12.21L58.93 12.21C58.76 12.21 58.74 12.29 58.74 12.43C58.74 12.59 58.74 12.67 58.94 12.67C59.02 12.67 59.57 12.64 59.92 12.64C60.33 12.64 60.77 12.67 60.93 12.67C61.11 12.67 61.11 12.56 61.11 12.43C61.11 12.29 61.11 12.21 60.91 12.21L60.75 12.21C60.63 12.21 60.62 12.21 60.49 12.04C60.12 11.56 59.22 10.33 58.87 9.84C58.79 9.73 58.76 9.69 58.76 9.66C58.76 9.63 58.79 9.60 58.87 9.52C59.16 9.23 59.78 8.58 60.34 8.06C60.56 7.85 60.68 7.67 60.96 7.67C61.12 7.67 61.14 7.59 61.14 7.45C61.14 7.28 61.12 7.21 60.97 7.21C60.86 7.21 60.58 7.24 60.17 7.24C59.79 7.24 59.44 7.21 59.37 7.21C59.18 7.21 59.18 7.31 59.18 7.45C59.18 7.59 59.18 7.67 59.36 7.67L59.58 7.67C59.86 7.67 59.88 7.70 59.88 7.74C59.88 7.77 59.85 7.81 59.79 7.88C59.65 8.06 58.79 9.09 58.66 9.21C58.51 9.37 58.52 9.41 58.41 9.23L57.53 7.94C57.46 7.85 57.41 7.76 57.41 7.73C57.41 7.67 57.48 7.67 57.69 7.67C57.85 7.67 57.85 7.59 57.85 7.45C57.85 7.29 57.83 7.21 57.68 7.21C57.58 7.21 57.16 7.24 56.81 7.24C56.41 7.24 55.80 7.21 55.68 7.21C55.48 7.21 55.48 7.32 55.48 7.45C55.48 7.59 55.48 7.67 55.68 7.67L55.99 7.67C56.11 7.67 56.13 7.69 56.27 7.87L57.76 9.88C57.83 9.98 57.82 10.00 57.72 10.09L56.04 11.82C55.69 12.18 55.66 12.21 55.41 12.21C55.24 12.21 55.20 12.24 55.20 12.43Z"></path></g><!----><g data-v-423bf9ae="" id="692f0ff7-d621-44b8-9080-7c9ce596b2d2" transform="matrix(1.1840235590625154,0,0,1.1840235590625154,-15.976186884583974,-13.196872846547642)" stroke="none" fill="white"><path d="M70.062 65.593c1.053 0 2.043-.41 2.789-1.155s1.156-1.735 1.156-2.79-.411-2.043-1.156-2.788c-1.49-1.49-4.088-1.49-5.579 0-.745.745-1.155 1.735-1.155 2.789s.41 2.044 1.155 2.789 1.736 1.155 2.79 1.155zm-2.083-6.026c.556-.556 1.295-.862 2.083-.862s1.526.306 2.082.862c.556.556.863 1.295.863 2.082s-.307 1.526-.863 2.082c-1.112 1.112-3.053 1.112-4.165 0-.556-.556-.862-1.295-.862-2.082s.306-1.526.862-2.082z"></path><path d="M83.126 69.304h2.618v-15.31h-2.618V36.863H64.402a16.484 16.484 0 0 0 2.227-8.296c0-9.17-7.46-16.629-16.629-16.629-3.097 0-5.99.867-8.475 2.348a16.566 16.566 0 0 0-8.502-2.348c-9.169 0-16.628 7.46-16.628 16.63 0 2.952.772 5.781 2.226 8.295H14.18V87.95h68.947V69.304zm.618-2H63.74l-2.993-5.678 2.991-5.632h20.006v11.31zM64.63 28.567c0 2.996-.9 5.85-2.591 8.296H58.46c2.154-2.201 3.41-5.167 3.41-8.296 0-6.546-5.325-11.871-11.871-11.871S38.129 22.02 38.129 28.567c0 3.129 1.256 6.095 3.41 8.296h-3.577a14.502 14.502 0 0 1-2.59-8.296c0-8.066 6.562-14.629 14.628-14.629s14.629 6.563 14.629 14.63zM54.142 31.54l-.637 1.307c-.306.63-.473.708-1.1.715v-.003h-3.918v.003c-.628-.007-.795-.085-1.1-.715l-1.375-2.818c-.195-.391-.34-.668-.34-1.124 0-.505.129-.798.34-1.238l1.407-2.834c.3-.603.419-.68 1.068-.684v.004H52.404v-.004c.65.004.769.08 1.068.684l.586 1.18h1.79l-.952-1.93c-.55-1.124-1.246-1.563-2.492-1.563H51.28v-2.23h-1.669v2.23h-1.124c-1.246 0-1.942.44-2.492 1.564l-1.488 3.013c-.324.651-.453 1.091-.453 1.808 0 .635.162 1.157.437 1.71l1.488 3.03c.518 1.06 1.213 1.548 2.427 1.548h1.205v1.67h-6.613a10.882 10.882 0 0 1-3.87-8.295c0-5.994 4.878-10.871 10.872-10.871s10.871 4.877 10.871 10.871c0 3.21-1.437 6.24-3.869 8.296H51.28v-1.671h1.205c1.214 0 1.91-.489 2.427-1.548l1.034-2.105h-1.804zm-28.12 5.324a10.883 10.883 0 0 1-3.87-8.296c0-5.994 4.876-10.871 10.871-10.871 1.336 0 2.623.241 3.846.706a16.606 16.606 0 0 0-2.342 4.117h-1.061v-2.23h-1.67v2.23h-1.124c-1.246 0-1.942.44-2.492 1.564l-1.488 3.013c-.323.651-.453 1.091-.453 1.808 0 .635.162 1.157.437 1.71l1.488 3.03c.518 1.06 1.214 1.548 2.427 1.548h1.205v1.67H26.02zm4.674-12.71h3.289a16.549 16.549 0 0 0-.614 4.414c0 1.718.265 3.393.767 4.991h-3.466v.003c-.628-.007-.795-.085-1.1-.715l-1.375-2.818c-.194-.391-.34-.668-.34-1.124 0-.505.13-.798.34-1.238l1.407-2.834c.3-.603.419-.68 1.068-.684v.004h.024zm2.77 11.039H34.67c.028 0 .048-.007.073-.009.25.575.54 1.133.855 1.68h-2.132v-1.671zm-15.071-6.625c0-8.066 6.562-14.629 14.628-14.629 2.335 0 4.608.56 6.66 1.611a16.752 16.752 0 0 0-2.151 2.052 11.739 11.739 0 0 0-4.509-.905c-6.545 0-11.872 5.325-11.872 11.871 0 3.128 1.257 6.095 3.411 8.296h-3.576a14.496 14.496 0 0 1-2.591-8.296zm-2.216 57.384v-3.096h1.854a.5.5 0 1 0 0-1H16.18v-3.679h12.955l1.455-3.943h6.622a5.381 5.381 0 0 0 1.51 3.02 5.397 5.397 0 0 0 3.841 1.592 5.397 5.397 0 0 0 3.841-1.59 5.395 5.395 0 0 0 1.592-3.841 5.394 5.394 0 0 0-1.592-3.841 5.395 5.395 0 0 0-3.84-1.592 5.397 5.397 0 0 0-5.289 4.252h-8.08l-1.455 3.943H16.18V65.994h12.955l1.455-3.943h6.632a5.389 5.389 0 0 0 1.5 2.93 5.397 5.397 0 0 0 3.842 1.592 5.397 5.397 0 0 0 3.84-1.591 5.396 5.396 0 0 0 1.592-3.841c0-1.451-.565-2.815-1.592-3.841a5.395 5.395 0 0 0-3.84-1.591c-1.45 0-2.815.565-3.841 1.59a5.394 5.394 0 0 0-1.474 2.752h-8.054l-1.455 3.943H16.18V53.81h12.955l1.455-3.943h6.64a5.398 5.398 0 0 0 1.493 2.841 5.4 5.4 0 0 0 3.84 1.59 5.395 5.395 0 0 0 3.841-1.59c1.027-1.026 1.592-2.39 1.592-3.84s-.565-2.816-1.592-3.842a5.395 5.395 0 0 0-3.84-1.59c-1.45 0-2.815.564-3.841 1.59a5.396 5.396 0 0 0-1.493 2.841h-8.035l-1.455 3.943H16.18v-8.853h1.854a.5.5 0 1 0 0-1H16.18v-3.095h64.947v15.131h-3.058v-1a.5.5 0 1 0-1 0v1H62.535l-4.05 7.63 4.048 7.68h14.535v.999a.5.5 0 1 0 1 0v-1h3.058v16.648H16.179zm23.957-14.964a3.412 3.412 0 0 1 2.426-1.006c.917 0 1.779.357 2.427 1.006a3.407 3.407 0 0 1 1.006 2.427c0 .916-.357 1.777-1.006 2.426-1.296 1.296-3.555 1.296-4.853 0a3.436 3.436 0 0 1 0-4.853zm0-12.273a3.41 3.41 0 0 1 2.426-1.005 3.41 3.41 0 0 1 2.427 1.005 3.41 3.41 0 0 1 1.006 2.427 3.41 3.41 0 0 1-1.006 2.426c-1.296 1.297-3.555 1.297-4.853 0a3.436 3.436 0 0 1 0-4.853zm0-12.272a3.41 3.41 0 0 1 2.426-1.005 3.41 3.41 0 0 1 2.427 1.004c.649.649 1.006 1.51 1.006 2.427s-.357 1.778-1.006 2.427c-1.296 1.295-3.555 1.297-4.853 0a3.436 3.436 0 0 1 0-4.853z"></path><path d="M77.568 73.154a.5.5 0 0 0-.5.5v3.35a.5.5 0 1 0 1 0v-3.35a.5.5 0 0 0-.5-.5zM77.568 79.855a.5.5 0 0 0-.5.5v1.5h-1.5a.5.5 0 1 0 0 1h2a.5.5 0 0 0 .5-.5v-2a.5.5 0 0 0-.5-.5zM25.704 81.855H21.87a.5.5 0 1 0 0 1h3.835a.5.5 0 1 0 0-1zM33.376 81.855H29.54a.5.5 0 1 0 0 1h3.836a.5.5 0 1 0 0-1zM41.047 81.855h-3.835a.5.5 0 1 0 0 1h3.835a.5.5 0 1 0 0-1zM71.732 81.855h-3.836a.5.5 0 1 0 0 1h3.836a.5.5 0 1 0 0-1zM48.719 81.855h-3.836a.5.5 0 1 0 0 1h3.836a.5.5 0 1 0 0-1zM56.39 81.855h-3.836a.5.5 0 1 0 0 1h3.836a.5.5 0 1 0 0-1zM64.062 81.855h-3.836a.5.5 0 1 0 0 1h3.836a.5.5 0 1 0 0-1zM49.218 42.458a.5.5 0 0 0-.5-.5h-3.836a.5.5 0 1 0 0 1h3.836a.5.5 0 0 0 .5-.5zM33.375 41.958h-3.836a.5.5 0 1 0 0 1h3.836a.5.5 0 1 0 0-1zM25.704 41.958h-3.836a.5.5 0 1 0 0 1h3.836a.5.5 0 1 0 0-1zM60.225 42.958h3.836a.5.5 0 1 0 0-1h-3.836a.5.5 0 1 0 0 1zM52.554 42.958h3.835a.5.5 0 1 0 0-1h-3.835a.5.5 0 1 0 0 1zM67.896 42.958h3.835a.5.5 0 1 0 0-1h-3.835a.5.5 0 1 0 0 1zM41.047 41.958H37.21a.5.5 0 1 0 0 1h3.836a.5.5 0 1 0 0-1zM75.568 42.958h1.5v1.5a.5.5 0 1 0 1 0v-2a.5.5 0 0 0-.5-.5h-2a.5.5 0 1 0 0 1zM77.568 46.804a.5.5 0 0 0-.5.5v2.845a.5.5 0 1 0 1 0v-2.845a.5.5 0 0 0-.5-.5z"></path></g><!----></svg>